<?xml version="1.0" encoding="UTF-8"?>
<svg id="a" xmlns="http://www.w3.org/2000/svg" viewBox="0 0 456.91 502.88">
    <defs>
        <style>
            path{fill:#0e181b;}

            @media (prefers-color-scheme: dark) {
                path{fill:#BDD6DB;}
            }
        </style>
    </defs>
    <path d="M65.02,370.18c-.87,0-1.73-.01-2.61-.04-.69,.02-1.38,.03-2.06,.03-27.08,0-47.8-17.09-51.57-42.52,0-.05-.02-.11-.02-.16-.38-3-.34-5.91-.29-8.98,.06-4.57,.13-9.29-1.25-14.81-.53-2.12-.04-4.37,1.33-6.07,2.58-3.23,4.63-6.46,6.81-9.89,3.21-5.06,6.52-10.29,11.54-15.31,5.92-5.92,15.53-7.82,22.65-8.68,2.01-.77,4.28-1.15,6.9-1.15,1.84,0,3.63,.18,5.35,.35,1.5,.15,2.92,.29,4.17,.29,.91,0,1.63-.08,2.17-.23,.14-.04,.29-.08,.44-.11,4.3-.94,8.43-1.41,12.26-1.41,14.66,0,26.14,6.47,37.24,20.98,.27,.35,.5,.73,.7,1.12,2.61,5.22,5.91,10.12,9.73,15.8,.8,1.19,1.62,2.41,2.46,3.67,7.31,9.89,7.23,23.25-.14,32.04-15.23,22.61-38.58,35.06-65.79,35.06Zm49.24-191.87c-.87,0-1.73-.01-2.61-.04-.69,.02-1.38,.03-2.06,.03-27.08,0-47.8-17.09-51.57-42.52,0-.05-.02-.1-.02-.16-.38-3.01-.34-5.91-.29-8.99,.06-4.57,.13-9.29-1.25-14.8-.53-2.12-.04-4.36,1.32-6.07,2.58-3.23,4.63-6.46,6.81-9.89,3.21-5.06,6.52-10.29,11.54-15.31,5.92-5.92,15.53-7.82,22.65-8.68,2.01-.77,4.28-1.15,6.9-1.15,1.84,0,3.63,.18,5.35,.35,1.5,.15,2.92,.29,4.17,.29,.91,0,1.64-.08,2.17-.23,.14-.04,.29-.08,.44-.11,4.3-.94,8.43-1.41,12.26-1.41,14.66,0,26.15,6.47,37.24,20.98,.27,.35,.5,.73,.7,1.12,2.61,5.22,5.91,10.12,9.73,15.79,.8,1.19,1.62,2.41,2.47,3.68,7.31,9.89,7.23,23.25-.14,32.04-15.23,22.61-38.58,35.06-65.79,35.06Z"/>
</svg>