<?xml version="1.0" encoding="UTF-8"?><svg id="a" xmlns="http://www.w3.org/2000/svg" viewBox="0 0 448.09 492.21"><defs>
    <style>
        .b{fill:#0E181B;}
        @media (prefers-color-scheme: dark) {
            .b{fill:#BDD6DB;}
        }
    </style>
</defs><path class="b" d="M22,257.78c4.84-3.91,12.9-4.83,20.87-4.87,5.53-2.07,13.03,2.26,19.34,1.16,20.59-2.25,32.1,6.05,41.9,22.13,2.76,7.37,6.49,13.96,10.9,22.39,4.51,7.55,4.27,18.15-2.59,24.5-16.22,19.52-39.49,30.33-68.27,26.4C18.68,347.69,1.01,330.77,0,306.78c-.13-7.09,2.45-14.78,.93-25.56,7.93-8.01,12.35-16.39,21.06-23.43ZM93.68,65.39c4.84-3.91,12.9-4.83,20.87-4.87,5.53-2.07,13.03,2.26,19.34,1.16,20.59-2.25,32.1,6.05,41.9,22.13,2.76,7.37,6.49,13.96,10.9,22.39,4.51,7.56,4.27,18.15-2.59,24.5-16.22,19.52-39.49,30.33-68.27,26.4-25.47-1.81-43.15-18.72-44.15-42.72-.14-7.09,2.45-14.78,.93-25.56,7.93-8.01,12.35-16.39,21.06-23.43Z"/><path class="b" d="M233.31,49.42c-5.81,.65-10.97-2.58-14.85-5.16-3.23-1.94,41.31-18.72,41.31-18.72,0-1.94-46.47,10.33-45.18,10.33,8.39-7.1,15.49-14.2,25.17-19.36,49.05-23.88,97.46-21.95,144.58,6.45,18.72,11.62,30.34,29.05,36.15,52.93,5.16,21.95,5.81,43.89,5.81,67.13-.65,1.29,0,3.23,0,5.81,1.29-1.94,4.52-3.87,4.52-5.16,5.16-12.26,9.68-24.53,12.26-36.15,.65-.65,1.94-1.94,3.23-1.94,.65,0,1.29,1.29,1.29,1.94,.65,3.23,.65,7.1,0,10.33-2.58,9.04-4.52,20.01-7.1,29.05-4.52,16.14-12.26,29.05-14.2,46.47-1.29,9.68-7.1,20.01-11.62,29.69-21.95,45.83-46.47,91.01-78.75,127.8-41.31,49.7-85.85,91.66-140.06,120.06-15.49,7.1-29.05,12.91-43.25,18.72-6.45,2.58-14.2,1.94-22.59,2.58-6.46,0-10.97-3.87-11.62-8.39-1.94-6.45-4.52-10.97-6.45-16.14-.65-1.94,43.89-26.46,43.25-29.05-1.94-5.16-25.82,6.45-35.5,6.45-12.26,0-10.33-10.97-9.04-17.43,1.94-5.16,6.45-8.39,11.62-9.68,52.93-17.43,96.17-52.93,136.19-92.3,1.94-1.94,3.23-3.23,3.87-4.52,.65-.65,.65-1.94,.65-3.23h-2.58c-3.87,2.58-8.39,5.81-12.91,8.39-20.65,14.2-41.95,29.05-64.55,41.96-7.75,5.16-16.14,6.45-24.53,10.33,7.75-5.16,14.85-11.62,21.95-16.78,44.54-31.63,86.49-66.48,126.51-105.85,8.39-7.75,14.2-16.78,19.36-26.46,13.55-29.05,25.82-58.74,35.5-88.43,1.29-5.16,2.58-9.04,1.94-14.2,0-5.16-3.23-9.04-5.16-14.2-1.29,4.52-2.58,8.39-3.87,12.91-5.16,29.69-14.2,56.8-28.4,83.26-3.87,7.75-9.04,14.85-14.2,23.24-.65,0-2.58,0-3.23,.65,0-.65-1.29-2.58-.65-3.23,.65-2.58,3.23-5.81,3.87-7.75,16.14-34.21,27.11-69.06,29.69-107.15,2.58-65.84-44.54-45.83-90.36-45.83-12.26,0,50.35-33.56,38.73-33.56-.65,0-34.21,12.91-56.8,14.2Zm132.96,50.99c1.29,0,1.94,1.29,2.58,1.29,0-1.29,1.29-1.94,1.29-1.94-1.29-3.87-1.29-8.39-3.87-11.62-.65-1.29-1.29-2.58-2.58-2.58,0,0,0,2.58-.65,3.87,.65,3.23,2.58,7.1,3.23,10.97Zm14.2,13.55c0-1.29-.65-2.58-1.29-3.23,0,1.29-.65,3.23-.65,4.52s.65,2.58,.65,3.87c.65-1.94,1.29-3.87,1.29-5.16Z"/></svg>