<svg xmlns="http://www.w3.org/2000/svg" id="profile" width="128" height="128" viewBox="0 0 1181 1174"><defs/><defs><clipPath id="clip-path"><circle cx="601.4" cy="565.8" r="597.8" fill="none"/></clipPath><style>.cls-12{fill:#ce697e}.cls-14{fill:#30121f}.cls-15{fill:#160c17}.cls-16{fill:#4c1a29}.cls-17{fill:#dea4a4}.cls-18{fill:#ae656c}.cls-26{fill:#c3b1b9}.cls-29{fill:#13171e}</style></defs><g clip-path="url(#clip-path)"><path d="M858 249l-18 38-37-57 55 19z"/><path fill="#591b34" d="M840 287l-37-57-19 38-113 38h95v56l74-75z"/><path fill="#bb5063" d="M766 362l-56 93 55 39v-75l1-57z"/><path fill="#f49a95" d="M897 474l-19-95-38-92-74 75-1 57v75l75-75h1l37 19 19 36z"/><path fill="#f4d5ce" d="M878 438l-38-19-75 75 38 37h38l56-57-19-36z"/><path fill="#7f2b44" d="M954 379l-114-92 38 92 19 95 19 46 19 10 38-56-19-95z"/><path fill="#421f27" d="M639 679l-24-36-19-38 1-38 18-54 37-39-54-19v76l-20 94 35 56 40 19h18l-32-21z"/><path fill="#994657" d="M803 531l-38-37-55-39H598l54 19 38 1 56 19 19 18 19 56v57l19-37 1-38-1-19z"/><path fill="#de7186" d="M897 474l-56 57h-38l1 19-1 38 19 38 19-39 18-37 19-19 38-11-19-46z"/><path fill="#a66472" d="M973 550l-21-1 20 75-20 56-19 39-55 18 19 1-6 19 44-19 37-57 19-57 19-36-37-38z"/><path d="M916 520l-38 11 57-1-19-10zM859 550l-18 37-19 39 37 75-19 36h38l19-37-37-56v-56l19-39 37-18h-38l-19 19zM935 530l-19 1 36 18 21 1-38-20z" class="cls-12"/><path fill="#1f0f1b" d="M784 682l19-94-19 37-37 56-37 19h-57l-40-19-15 37h38l36 20h112l19-19-19-37z"/><path d="M672 738l-36-20h-38l-21 55 20 39 56-37 94-18-75-19z" class="cls-14"/><path d="M597 812l-20-39-19 153 95-151-56 37zM595 906l1-40-38 60 37-20z" class="cls-15"/><path d="M672 738l75 19-94 18-57 91 57-16 19-40 57 2 55-37v-37H672z" class="cls-15"/><path d="M822 626l-19-38-19 94 19 37-19 19v37l56-38 19-36-37-75z" class="cls-16"/><path d="M840 832l18-18-18-20-18-19-38 37v38l19 18h38l-19-18 18-18z" class="cls-17"/><path d="M784 812l38-37 18-38-56 38-55 37v38l-1 19v38l37-38 38-1-19-18v-38z" class="cls-18"/><path d="M765 869l-37 38 38 38 38-57-39-19z" class="cls-17"/><path fill="#e1c4c9" d="M878 737h-38l-18 38 18 19 18 20-36 36 19 18h-38l-38 1 39 19-38 57-19 17 56 20v-36l38-59 37-93 19-56-19-1z"/><path fill="#cc6472" d="M766 945l-38-38-38 38h76z"/><path d="M672 810l-19 40 27 7 48 12 1-19v-38l-57-2z" class="cls-16"/><path d="M596 866l-1 40 58-18 37 57 38-38v-38l-75-19-57 16z" class="cls-16"/><path d="M653 888l-58 18 37 75 40 4 18-40-37-57z" class="cls-14"/><path d="M747 962l19-17h-76l57 57 56-20-56-20z" class="cls-17"/><path fill="#ba7176" d="M747 1002l56 19v-39l-56 20z"/><path fill="#a6455a" d="M747 1002l-57-57 20 74 18 38 75-36-56-19z"/><path d="M728 1057l-18-38-20-74-18 40v34l18 38 38 18 57-18 18-36-75 36z" class="cls-16"/><path fill="#ab8586" d="M504 1112l-38 226-75-75 113-151z"/><path fill="#64323d" d="M504 1112l-113 151-38-96 151-55z"/><path fill="#2a111d" d="M146 1224l207-57-169 115-38-58z"/><path d="M353 1167l-169 115 75 56 132-75-38-96z" class="cls-18"/><path d="M485 1221l110-144-91 35-19 109z" class="cls-26"/><path d="M615 1132l1-20-1-37-20 2-110 144-19 117 150-150 56 20-57-76z" class="cls-26"/><path fill="#000005" d="M858 155L728 79l-38-55L561 7 390 25 127 268 90 418l-1 132 114 409-414 249v187l282-36 59-58 54-19-38-58 207-57 151-55 91-35 20-2 1 37 56 39 18-94-18-38v-34l-40-4-37-75-37 20 19-153 21-55 15-37-35-56 20-94v-76h112l56-93v-56h-95l113-38 19-38 55 19-18 38 22 19 92 73 19 95 17-57 19-111-151-151z"/><path fill="#5d6770" d="M672 1151l-56-39-1 20 57 76 56 75v-95l-56-37z"/><path d="M615 513l37-39 38 1 56 19 19 18 19 56v57l-37 56-37 19h-39l-32-21-24-36-19-38 1-38 18-54zM916 531l36 18 20 75-20 56-19 39-55 18 19-37-37-56v-56l19-39 37-18z" class="cls-29"/></g></svg>