<svg aria-hidden="true" focusable="false" role="img" xmlns="http://www.w3.org/2000/svg" height="16" viewBox="0 0 144.25 142.13" fill="currentColor"><title>DuckDuckGo</title><path d="M90.79,44.26c-3.39-4.38-9.47-4.52-11.59.57C82.45,42.29,86.41,41.72,90.79,44.26Z"/><path d="M53,44.41c-4.66-2.83-12.44-3.11-12,5.79C43.27,44.69,46.39,43.7,53,44.41Z"/><path d="M88,52.61a4.67,4.67,0,1,0,4.67,4.67A4.71,4.71,0,0,0,88,52.61ZM89.66,57a1.42,1.42,0,0,1,0-2.83,1.34,1.34,0,0,1,1.42,1.42A1.65,1.65,0,0,1,89.66,57Z"/><path d="M51.76,55.15a5.38,5.38,0,1,0,5.37,5.38A5.37,5.37,0,0,0,51.76,55.15Zm2,5a1.56,1.56,0,1,1,1.56-1.55A1.57,1.57,0,0,1,53.74,60.1Z"/><path d="M72.12,0A72.06,72.06,0,0,0,47.66,139.87C44,124.45,33.52,80.33,31.11,55.58c-1.69-17.4,7.64-27,25.88-29.42-7.92-2.54-21.92-1.84-21.92-1.84.29-4.8,7.36-5.79,7.36-5.79A49.81,49.81,0,0,0,35.5,15.7C55,13,67.32,19.66,72.55,26.59,93.76,31.68,97.16,56,97.16,62.93a29.58,29.58,0,0,1-.75,7.27c10.8-2.35,21.84-7,25.21-6.84,4.67.14,7.64,2,7.64,4.1,0,3.11-26,14.85-36.06,13.86-9.62-.85-11.88.14-11.88,4.1,0,3.39,6.93,6.5,14.56,6.5,11.46,0,22.63-5.09,26-2.68,3,2.12-7.78,9.75-20.09,9.75C93.15,99,80,96.11,73,91.14c-.18,1.8-.28,3.84-.28,6.16,0,6.86,2.23,14.75,5.13,22.12,3.19-.66,6.77-.65,7,.22a7.57,7.57,0,0,1,.43,1.56c3.53-2.55,12.87-9.19,15.27-8.63,3,.71,3.54,22.06,1,22.77-2,.71-11.45-2.69-15.84-4.38a1.4,1.4,0,0,1-.56.7,6.94,6.94,0,0,1-1.46.66c2.12,4.13,4.08,7.56,5.42,9.81A72.07,72.07,0,0,0,72.12,0Z"/></svg>