<svg class="page-footer__logo-image" height="48" width="48" viewBox="0 0 170 170" version="1.1"
    xmlns="http://www.w3.org/2000/svg" xmlns:xlink="http://www.w3.org/1999/xlink">
    <title id="uniqueTitleId">Etribes</title>
    <g id="Page-1" stroke="none" stroke-width="1" fill="none" fill-rule="evenodd">
        <g id="Etribes---Styleguide---Logo---Shorthanded" transform="translate(-300.000000, -300.000000)"
            fill="currentColor" fill-rule="nonzero">
            <path
                d="M310,310 L310,460 L460,460 L460,310 L310,310 Z M300,300 L470,300 L470,470 L300,470 L300,300 Z M380.762477,366.425601 L380.762477,378.60847 L380.762477,402.823407 C380.762477,408.343627 382.218115,409.650566 388.951017,409.650566 C396.451017,409.650566 398.521257,408.28879 402.652495,400.419735 C403.036044,399.816533 403.414972,399.460095 403.951017,399.460095 C404.487061,399.460095 404.87061,399.967333 404.87061,400.570536 C404.87061,401.383946 404.634935,402.61777 404.477819,403.636817 C404.320702,404.655864 404.103512,406.378648 403.927911,408.064874 C403.516636,412.141063 403.798521,411.999402 399.898336,411.999402 C399.898336,411.999402 384.935305,411.830322 373.488909,411.830322 C371.94085,411.830322 366.839187,411.994832 366.68207,411.994832 C365.457486,411.994832 365,411.6978 365,410.861542 C365,409.956738 365.614603,409.650566 367.906654,409.499766 C371.275416,409.27128 371.963956,408.343627 371.963956,403.805897 L371.963956,367.25729 C371.963956,362.71499 371.275416,361.654815 367.906654,361.508584 C365.614603,361.353213 365,361.051612 365,360.142238 C365,359.310549 365.462107,358.935832 366.68207,359.008948 C367.781885,359.072924 370.526802,359.210016 371.963956,359.228294 C378.567468,359.310549 391.862292,359.228294 395.522181,359.232864 C399.186691,359.242004 403.622921,359.008948 403.927911,359.008948 C404.847505,359.008948 405,359.310549 405,361.353213 L405,368.847552 C405,369.830041 404.695009,370.282443 404.085028,370.282443 C403.544362,370.282443 402.07975,369.90815 401.03512,368.847552 C398.969501,364.606853 398.202403,363.775164 395.448244,362.71499 C393.230129,361.883301 389.18207,361.430899 385.277264,361.430899 C381.146026,361.430899 380.762477,361.883301 380.762477,366.425601 Z M387.222222,385.540058 C387.222222,382.919817 389.324713,380.85567 391.90613,380.85567 C394.568966,380.85567 396.666667,382.919817 396.666667,385.620173 C396.666667,388.160299 394.568966,390.14433 391.824713,390.14433 C389.324713,390.14433 387.222222,388.000068 387.222222,385.540058 Z"
                id="Combined-Shape"></path>
        </g>
    </g>
</svg>