<svg class="logo__waves" width="77" height="52" xmlns="http://www.w3.org/2000/svg">
          <g fill="currentColor" fill-rule="evenodd">
            <path d="M20.145 14.494c-.002-.306-.08-.557-.173-.557-.093 0-.17.25-.172.557l-.164 31.81c-.002.305.15.556.336.556.187 0 .338-.25.337-.557l-.164-31.81zM22.012 11.172c-.002-.306-.08-.556-.173-.556-.093 0-.17.25-.172.556l-.164 31.81c-.002.306.15.556.336.556.187 0 .339-.25.337-.556l-.164-31.81zM23.879 9.218c-.002-.306-.08-.556-.173-.556-.093 0-.17.25-.172.556l-.164 31.81c-.002.305.15.556.336.556.187 0 .339-.25.337-.557l-.164-31.81zM25.746 8.046c-.002-.306-.08-.557-.173-.557-.093 0-.17.25-.172.557l-.164 31.81c-.002.305.15.556.336.556.187 0 .339-.25.337-.557l-.164-31.81zM33.214 8.827c-.001-.306-.079-.556-.172-.556-.094 0-.171.25-.173.556l-.164 31.81c-.002.306.15.556.337.556.186 0 .338-.25.336-.556l-.164-31.81zM35.081 8.436c-.001-.306-.079-.556-.172-.556-.094 0-.171.25-.173.556l-.164 31.81c-.001.306.15.556.337.556.187 0 .338-.25.336-.556l-.164-31.81zM42.55 9.023c-.002-.306-.08-.557-.173-.557-.093 0-.17.25-.172.557l-.164 31.81c-.002.305.15.556.336.556.187 0 .338-.25.337-.557l-.164-31.81zM44.417 8.632c-.002-.306-.08-.557-.173-.557-.093 0-.17.25-.172.557l-.164 31.81c-.002.305.15.556.336.556.187 0 .338-.25.337-.557l-.164-31.81zM46.284 8.24c-.002-.305-.08-.555-.173-.555-.093 0-.17.25-.172.556l-.164 31.81c-.002.306.15.556.336.556.187 0 .338-.25.337-.556l-.164-31.81zM48.15 7.85c0-.306-.078-.556-.172-.556-.093 0-.17.25-.172.556l-.164 31.81c-.002.306.15.556.336.556.187 0 .339-.25.337-.556L48.15 7.85zM50.018 7.46c-.002-.307-.08-.557-.173-.557-.093 0-.17.25-.172.556l-.164 31.81c-.002.306.15.556.336.556.187 0 .339-.25.337-.556l-.164-31.81zM51.885 6.873c-.002-.306-.08-.556-.173-.556-.093 0-.17.25-.172.556l-.164 31.81c-.002.306.15.556.336.556.187 0 .339-.25.337-.556l-.164-31.81zM53.752 6.287c-.002-.306-.08-.556-.172-.556-.094 0-.171.25-.173.556l-.164 31.81c-.002.306.15.556.337.556.186 0 .338-.25.336-.556l-.164-31.81zM55.62 5.7c-.002-.305-.08-.556-.173-.556-.094 0-.171.25-.173.557l-.164 31.81c-.002.305.15.556.337.556.186 0 .338-.25.336-.557L55.62 5.7zM57.486 5.31c-.001-.306-.079-.556-.172-.556-.094 0-.171.25-.173.556l-.164 31.81c-.002.306.15.556.337.556.186 0 .338-.25.336-.556l-.164-31.81zM64.921 6.012c-.001-.306-.079-.556-.172-.556-.094 0-.171.25-.173.556l-.164 31.81c-.002.306.15.556.337.556.186 0 .338-.25.336-.556l-.164-31.81zM66.788 5.622c-.001-.306-.079-.557-.172-.557-.094 0-.171.25-.173.557l-.164 31.81c-.001.305.15.556.337.556.186 0 .338-.25.336-.557l-.164-31.81zM68.655 5.23c-.001-.305-.079-.556-.172-.556-.093 0-.171.25-.173.557l-.164 31.81c-.001.305.15.556.337.556.187 0 .338-.25.336-.557l-.164-31.81zM70.523 4.84c-.002-.306-.08-.556-.173-.556-.093 0-.171.25-.173.556l-.164 31.81c-.001.306.15.556.337.556.187 0 .338-.25.337-.556l-.164-31.81zM72.39 4.058c-.002-.306-.08-.556-.173-.556-.093 0-.17.25-.173.556l-.164 31.81c-.001.306.15.556.337.556.187 0 .338-.25.337-.556l-.164-31.81zM74.257 2.69c-.002-.306-.08-.556-.173-.556-.093 0-.17.25-.173.556l-.163 31.81c-.002.306.15.556.336.556.187 0 .338-.25.337-.556l-.164-31.81zM76.124 1.127c-.002-.306-.08-.556-.173-.556-.093 0-.17.25-.172.556l-.164 31.81c-.002.306.15.556.336.556.187 0 .338-.25.337-.556l-.164-31.81zM.552 18.919c-.001-.306-.079-.556-.172-.556-.093 0-.171.25-.173.556l-.164 31.81c-.001.306.15.556.337.556.187 0 .338-.25.336-.556l-.164-31.81zM2.421 18.528c-.001-.306-.08-.556-.172-.556-.094 0-.171.25-.173.556l-.164 31.81c-.002.306.15.556.337.556.186 0 .338-.25.336-.556l-.164-31.81zM4.288 18.137c-.001-.306-.079-.556-.172-.556-.094 0-.171.25-.173.556l-.164 31.81c-.002.306.15.556.337.556.186 0 .338-.25.336-.556l-.164-31.81zM6.155 17.747c-.001-.306-.079-.557-.172-.557-.094 0-.171.25-.173.557l-.164 31.81c-.001.305.15.555.337.555.186 0 .338-.25.336-.556l-.164-31.81zM8.022 17.425c-.001-.306-.079-.556-.172-.556-.094 0-.171.25-.173.556l-.164 31.81c-.001.306.15.556.337.556.187 0 .338-.25.336-.556l-.164-31.81zM9.926 17.425c0-.306-.058-.556-.128-.556s-.127.25-.128.556l-.122 31.81c-.001.306.112.556.25.556.139 0 .251-.25.25-.556l-.122-31.81zM11.794 17.62c-.002-.306-.06-.556-.129-.556-.07 0-.127.25-.128.556l-.122 31.81c-.001.306.112.556.25.556.139 0 .251-.25.25-.556l-.121-31.81zM13.66 18.011c0-.306-.058-.556-.128-.556-.069 0-.127.25-.128.556l-.122 31.81c0 .306.112.556.25.556.139 0 .251-.25.25-.556l-.121-31.81zM15.528 18.597c-.002-.306-.06-.556-.129-.556-.07 0-.127.25-.128.556l-.122 31.81c0 .306.112.556.25.556.139 0 .251-.25.25-.556l-.121-31.81zM17.395 18.793c-.001-.306-.059-.557-.129-.557-.069 0-.127.25-.128.557l-.122 31.81c0 .305.112.556.25.556.139 0 .251-.25.25-.557l-.121-31.81zM19.262 18.207c-.001-.306-.059-.557-.128-.557-.07 0-.128.25-.129.557l-.121 31.81c-.002.305.111.556.25.556.138 0 .25-.25.25-.557l-.122-31.81zM21.129 17.62c-.001-.306-.059-.556-.128-.556-.07 0-.127.25-.129.556l-.121 31.81c-.002.306.111.556.25.556.138 0 .25-.25.25-.556l-.122-31.81zM22.996 17.034c-.001-.306-.059-.556-.128-.556-.07 0-.127.25-.129.556l-.121 31.81c-.002.306.111.556.25.556.138 0 .25-.25.25-.556l-.122-31.81zM24.863 15.862c-.001-.306-.059-.557-.128-.557-.07 0-.127.25-.129.557l-.121 31.81c-.001.305.111.556.25.556s.25-.25.25-.557l-.122-31.81zM26.73 14.299c-.001-.306-.059-.557-.128-.557-.07 0-.127.25-.128.557l-.122 31.81c-.001.305.111.555.25.555.138 0 .25-.25.25-.556l-.122-31.81zM27.589 8.357c-.001-.306-.059-.556-.128-.556-.07 0-.127.25-.129.556l-.121 31.81c-.002.306.111.556.25.556.138 0 .25-.25.25-.556l-.122-31.81zM29.456 8.552c-.001-.306-.059-.556-.128-.556-.07 0-.127.25-.129.556l-.121 31.81c-.002.306.111.556.25.556.138 0 .25-.25.25-.556l-.122-31.81zM31.323 8.748c-.001-.306-.059-.556-.128-.556-.07 0-.127.25-.129.556l-.121 31.81c-.002.306.111.556.25.556.138 0 .25-.25.25-.556l-.122-31.81zM36.924 8.552c-.001-.306-.059-.556-.128-.556-.07 0-.127.25-.128.556l-.122 31.81c-.001.306.111.556.25.556s.25-.25.25-.556l-.122-31.81zM38.791 8.943c0-.306-.058-.556-.128-.556s-.127.25-.128.556l-.122 31.81c-.001.306.111.556.25.556s.25-.25.25-.556l-.122-31.81zM40.669 9.334c-.002-.306-.06-.556-.129-.556-.07 0-.127.25-.128.556l-.122 31.81c0 .306.112.556.25.556.139 0 .251-.25.25-.556l-.121-31.81zM59.39 5.426c0-.306-.058-.556-.128-.556s-.127.25-.128.556l-.122 31.81c0 .306.112.556.25.556.139 0 .251-.25.25-.556l-.121-31.81zM61.258 5.817c-.002-.306-.06-.556-.129-.556s-.127.25-.128.556l-.122 31.81c0 .305.112.556.25.556.139 0 .251-.25.25-.557l-.121-31.81zM63.125 6.403c-.001-.306-.06-.556-.129-.556s-.127.25-.128.556l-.122 31.81c0 .306.112.556.25.556.139 0 .251-.25.25-.556l-.121-31.81z"></path>
          </g>
        </svg>