<svg xmlns="http://www.w3.org/2000/svg"
 width="48" height="48" viewBox="0 0 1864.000000 1864.000000"
 preserveAspectRatio="xMidYMid meet">
<metadata>
Created by potrace 1.11, written by Peter Selinger 2001-2013
</metadata>
<g transform="translate(0.000000,1864.000000) scale(0.100000,-0.100000)"
fill="currentColor" stroke="none">
<path d="M15895 18619 c-22 -4 -53 -11 -70 -13 -16 -3 -41 -8 -55 -10 -14 -3
-165 -30 -335 -61 -171 -30 -321 -57 -335 -60 -14 -3 -41 -8 -60 -11 -19 -4
-44 -8 -55 -10 -39 -7 -130 -23 -160 -28 -16 -3 -88 -16 -160 -30 -71 -13
-146 -27 -165 -30 -47 -8 -85 -15 -145 -26 -27 -5 -66 -12 -85 -15 -19 -3 -69
-12 -110 -20 -41 -8 -93 -17 -115 -21 -22 -3 -59 -10 -83 -15 -23 -5 -59 -12
-80 -15 -20 -3 -44 -7 -52 -9 -8 -2 -37 -7 -65 -11 -27 -3 -53 -8 -56 -10 -5
-3 -31 -8 -104 -20 -30 -5 -352 -63 -390 -70 -23 -5 -116 -21 -160 -28 -16 -3
-41 -7 -55 -10 -53 -12 -76 -16 -115 -22 -22 -3 -71 -11 -110 -19 -38 -7 -86
-16 -105 -19 -19 -3 -46 -8 -60 -11 -14 -3 -63 -12 -110 -20 -47 -8 -96 -17
-110 -20 -14 -3 -63 -12 -110 -20 -82 -14 -107 -19 -160 -30 -14 -2 -41 -7
-60 -10 -54 -9 -197 -35 -275 -50 -38 -8 -90 -16 -115 -20 -25 -3 -52 -8 -60
-10 -12 -4 -98 -19 -284 -51 -16 -3 -32 -6 -35 -8 -3 -2 -28 -7 -54 -10 -26
-4 -107 -18 -180 -32 -73 -13 -145 -27 -162 -30 -48 -8 -138 -24 -165 -29 -14
-3 -50 -9 -80 -15 -30 -6 -64 -12 -75 -14 -11 -2 -40 -7 -65 -11 -25 -4 -54
-9 -65 -11 -11 -2 -135 -24 -275 -49 -140 -25 -275 -50 -300 -55 -25 -5 -61
-12 -80 -15 -19 -3 -109 -20 -200 -36 -91 -17 -174 -32 -185 -34 -23 -3 -55
-9 -175 -31 -92 -17 -183 -33 -325 -59 -49 -9 -112 -20 -140 -26 -27 -5 -66
-12 -85 -15 -19 -2 -55 -9 -80 -14 -25 -5 -65 -12 -90 -16 -25 -5 -47 -8 -50
-9 -8 -2 -93 -17 -120 -21 -14 -3 -74 -14 -135 -25 -60 -11 -144 -26 -185 -34
-41 -7 -124 -23 -185 -34 -60 -11 -126 -23 -145 -26 -125 -22 -199 -35 -222
-40 -32 -6 -35 -6 -223 -40 -77 -14 -151 -27 -165 -30 -32 -7 -65 -13 -110
-20 -19 -3 -69 -12 -110 -20 -41 -8 -140 -26 -220 -40 -80 -14 -156 -27 -170
-30 -26 -5 -323 -59 -417 -76 -29 -5 -79 -14 -110 -19 -32 -6 -73 -13 -92 -16
-19 -2 -52 -9 -75 -14 -22 -5 -57 -12 -76 -15 -59 -10 -715 -128 -1005 -181
-16 -3 -77 -14 -135 -24 -58 -10 -141 -26 -185 -34 -44 -8 -96 -17 -115 -21
-19 -3 -47 -8 -62 -10 -15 -2 -35 -6 -45 -9 -10 -3 -35 -7 -55 -10 -40 -6
-435 -77 -558 -101 -71 -13 -99 -18 -180 -31 -359 -57 -595 -269 -676 -609 -4
-16 -9 -2590 -10 -5718 l-2 -5688 42 6 c22 4 50 9 61 11 52 11 82 16 100 19
46 7 106 18 200 35 55 11 116 22 135 25 19 3 58 10 85 15 28 5 64 12 80 15 17
3 40 7 51 9 12 2 39 7 60 10 22 4 73 13 114 21 102 19 287 53 330 60 19 3 73
13 120 21 47 9 96 18 110 20 14 2 36 7 50 9 14 3 36 7 50 10 14 2 52 9 85 15
33 5 74 13 90 15 17 3 54 10 83 16 l52 10 0 377 c0 207 2 2393 4 4857 4 4173
5 4483 21 4529 33 97 94 167 180 209 42 20 150 45 320 73 17 2 93 16 170 30
77 15 149 28 160 30 11 2 34 6 50 9 17 3 46 8 65 11 19 3 43 7 53 10 10 3 30
7 45 9 24 3 172 30 227 41 11 3 36 7 55 10 19 2 55 9 80 14 25 5 61 11 80 14
19 4 46 8 60 11 14 3 63 12 110 20 47 8 96 17 110 20 14 3 36 7 50 10 50 8
196 34 225 40 30 6 168 30 215 39 23 4 71 12 125 22 11 2 58 11 105 19 47 8
99 18 115 21 17 3 104 19 195 35 277 50 330 60 400 74 14 2 41 7 60 10 43 7
136 23 170 30 14 3 39 8 55 10 17 3 68 13 115 21 47 9 94 18 105 20 11 1 47 8
80 14 33 5 74 12 90 15 17 3 41 8 55 10 14 3 39 8 55 11 17 2 55 9 85 15 30 6
64 12 75 13 23 4 298 54 335 61 13 2 42 7 65 10 22 4 56 10 75 15 19 5 58 12
85 16 28 3 52 8 55 9 3 2 24 6 46 9 22 4 51 9 64 11 14 3 63 12 110 20 47 8
96 17 110 20 14 3 39 7 55 10 17 3 53 10 80 15 28 5 66 12 85 16 19 3 71 12
115 20 174 32 449 81 505 90 19 3 43 7 52 10 10 3 30 7 45 10 16 2 37 6 48 9
11 2 43 7 70 11 28 3 53 8 56 10 3 1 59 12 125 23 65 12 130 23 144 26 45 9
244 45 284 51 21 3 48 8 60 10 24 6 83 16 211 39 50 8 124 22 165 30 41 8 91
17 110 20 33 5 330 60 376 69 12 2 39 7 60 10 22 3 75 13 119 21 78 15 551
101 610 111 17 3 113 20 215 39 102 19 201 37 220 40 19 3 60 10 90 16 30 6
69 12 85 14 17 3 53 9 80 15 66 14 86 17 129 24 30 5 164 29 331 60 27 5 148
27 230 41 38 7 179 33 275 51 41 7 89 16 105 19 17 3 41 7 55 9 14 3 66 12
115 20 50 9 100 18 113 20 77 16 304 57 337 61 22 4 47 8 55 10 8 2 29 7 45
10 17 2 41 7 55 10 14 3 45 8 70 11 25 3 47 8 50 9 3 2 50 11 105 20 55 10
107 19 115 20 8 2 21 4 28 4 9 1 12 202 12 971 0 918 -1 970 -17 969 -10 -1
-36 -5 -58 -10z"/>
<path d="M15845 14283 c-66 -12 -136 -25 -155 -28 -19 -3 -69 -12 -110 -20
-41 -8 -88 -17 -105 -20 -16 -3 -41 -7 -55 -10 -54 -10 -261 -47 -365 -66
-169 -31 -217 -39 -255 -45 -19 -3 -42 -7 -50 -9 -17 -5 -268 -51 -315 -58
-16 -3 -79 -14 -140 -26 -133 -25 -156 -29 -175 -30 -8 -1 -21 -5 -29 -10 -13
-8 -15 -653 -18 -4858 -3 -4201 -5 -4855 -18 -4898 -26 -91 -95 -174 -181
-218 -32 -16 -156 -43 -464 -98 -96 -17 -185 -33 -197 -35 -13 -2 -35 -6 -50
-9 -16 -3 -66 -12 -113 -20 -47 -9 -97 -17 -110 -20 -14 -3 -50 -9 -80 -15
-30 -6 -66 -12 -80 -15 -14 -3 -41 -7 -60 -10 -19 -2 -71 -12 -114 -20 -44 -8
-93 -18 -110 -21 -17 -2 -103 -18 -191 -34 -186 -34 -199 -37 -284 -50 -36 -6
-67 -12 -70 -14 -3 -2 -26 -7 -51 -10 -25 -3 -56 -8 -70 -11 -14 -3 -38 -7
-55 -10 -16 -3 -52 -10 -80 -15 -27 -5 -66 -12 -85 -15 -19 -3 -46 -8 -60 -10
-79 -16 -114 -23 -165 -31 -16 -2 -43 -7 -60 -11 -16 -3 -37 -7 -45 -8 -8 -2
-31 -5 -50 -9 -162 -30 -198 -36 -215 -40 -11 -2 -40 -7 -65 -11 -58 -9 -79
-13 -113 -21 -16 -3 -38 -7 -50 -9 -37 -5 -261 -45 -277 -50 -8 -2 -35 -7 -60
-10 -25 -3 -52 -8 -60 -10 -8 -2 -28 -7 -45 -9 -74 -13 -432 -77 -455 -82 -24
-4 -321 -58 -385 -69 -16 -3 -77 -14 -135 -25 -58 -11 -123 -22 -145 -25 -22
-4 -47 -8 -55 -10 -8 -2 -31 -7 -50 -10 -31 -5 -168 -30 -225 -41 -10 -2 -58
-10 -105 -19 -47 -8 -95 -17 -106 -19 -12 -2 -37 -7 -55 -10 -50 -8 -88 -15
-144 -26 -27 -5 -61 -11 -75 -14 -14 -2 -43 -7 -65 -11 -22 -4 -49 -9 -60 -11
-52 -10 -132 -24 -150 -28 -18 -3 -66 -11 -135 -22 -14 -3 -59 -11 -100 -19
-41 -8 -93 -17 -115 -21 -22 -3 -98 -17 -170 -30 -71 -14 -146 -27 -165 -30
-19 -3 -42 -7 -50 -9 -8 -2 -31 -7 -50 -10 -29 -5 -266 -48 -329 -60 -11 -2
-41 -7 -68 -11 -26 -3 -57 -8 -68 -11 -39 -8 -400 -74 -425 -78 -14 -2 -36 -6
-50 -9 -27 -6 -48 -10 -149 -26 -36 -6 -67 -12 -70 -14 -3 -2 -28 -7 -56 -11
-27 -3 -92 -15 -145 -25 -53 -10 -118 -22 -145 -25 -28 -4 -53 -9 -56 -11 -3
-2 -34 -8 -70 -14 -35 -5 -77 -12 -94 -16 -16 -3 -91 -16 -165 -30 -74 -14
-151 -27 -170 -30 -19 -3 -57 -9 -85 -14 -27 -6 -87 -17 -133 -26 -45 -8 -94
-17 -107 -20 -14 -2 -37 -6 -52 -9 -16 -3 -57 -10 -92 -15 -36 -6 -67 -13 -70
-14 -3 -2 -31 -7 -61 -11 -30 -4 -58 -9 -61 -11 -4 -2 -24 -6 -45 -9 -22 -3
-50 -7 -64 -10 -14 -3 -38 -7 -55 -10 -16 -3 -52 -10 -80 -15 -27 -5 -68 -12
-90 -16 -22 -3 -47 -7 -55 -9 -8 -2 -31 -7 -50 -10 -19 -3 -73 -13 -120 -21
-47 -9 -95 -18 -107 -20 -13 -2 -35 -6 -50 -9 -52 -10 -318 -58 -338 -61 -42
-6 -204 -36 -300 -54 -55 -10 -116 -21 -135 -25 -19 -3 -87 -15 -150 -26 -63
-12 -125 -23 -137 -25 -13 -2 -35 -6 -50 -9 -25 -5 -78 -14 -108 -18 -5 -1
-13 -6 -17 -11 -3 -5 -6 -443 -6 -973 l0 -964 34 5 c18 3 109 20 201 36 93 17
204 38 248 46 44 8 143 26 220 39 169 30 161 29 360 65 88 16 174 32 190 35
29 5 49 8 105 20 14 2 41 7 60 10 43 7 136 23 170 30 40 8 72 14 115 20 22 4
58 10 80 15 22 5 56 11 75 15 19 3 71 12 115 20 44 8 94 17 110 20 17 2 40 7
51 9 12 2 37 7 55 10 50 8 88 15 144 26 62 12 92 17 174 30 36 6 67 12 70 14
3 2 29 7 56 10 28 4 57 9 65 11 8 2 31 7 50 10 19 3 42 8 50 10 8 2 33 6 55
10 34 5 258 45 335 60 53 10 137 25 175 30 22 4 47 8 55 10 8 3 33 7 55 10 22
4 47 8 55 10 8 3 67 14 130 25 63 11 126 22 140 25 95 17 263 48 305 55 28 5
66 11 85 15 19 3 42 8 50 10 8 2 38 7 65 11 28 3 52 8 55 9 5 3 122 24 225 41
17 3 37 7 45 9 15 4 41 9 114 20 21 4 48 8 60 11 35 7 399 73 436 79 19 3 121
22 225 41 105 20 204 38 220 40 17 3 64 11 105 19 41 8 91 17 110 20 19 3 46
8 60 10 14 3 36 8 50 10 14 3 39 7 55 10 17 2 91 15 165 29 74 14 151 28 170
31 19 3 42 8 50 10 8 2 33 7 55 10 23 3 52 8 65 10 43 9 184 34 220 40 19 4
80 15 135 25 89 17 247 46 300 54 11 2 36 7 55 10 19 4 159 29 310 56 265 48
295 53 350 64 26 5 401 72 455 81 17 3 64 12 105 20 41 8 86 16 100 19 14 2
63 11 110 19 47 9 99 18 115 21 32 5 121 21 170 30 201 37 427 78 455 82 19 3
42 7 50 9 8 3 33 7 55 11 22 3 45 7 50 9 46 10 292 54 339 60 27 3 52 8 55 10
3 1 22 6 41 9 19 3 96 16 170 30 74 14 151 28 170 31 19 3 69 12 110 20 41 8
116 21 165 30 50 8 101 17 115 20 14 3 39 7 55 10 17 3 53 10 80 15 28 5 66
12 85 15 19 3 60 11 90 17 30 6 62 12 70 13 8 1 80 14 160 29 80 14 159 28
175 31 17 3 91 17 165 30 74 14 151 27 170 30 19 3 58 10 85 15 75 15 89 18
131 24 22 4 73 13 114 21 91 17 236 43 270 49 123 19 326 62 374 78 165 55
310 173 402 328 39 65 62 124 91 229 8 25 16 8498 11 10456 l-3 960 -120 -22z"/>
<path d="M12830 10929 c-34 -8 -66 -13 -139 -25 -18 -3 -43 -8 -55 -10 -20 -5
-110 -21 -316 -58 -47 -9 -98 -18 -115 -21 -16 -3 -64 -12 -105 -20 -41 -8
-115 -21 -165 -30 -86 -14 -110 -19 -165 -30 -14 -2 -41 -7 -60 -10 -19 -3
-48 -8 -65 -12 -16 -3 -37 -7 -45 -9 -30 -4 -97 -16 -195 -34 -55 -11 -113
-22 -130 -25 -16 -2 -41 -7 -55 -10 -14 -3 -52 -10 -85 -15 -61 -10 -73 -12
-160 -30 -27 -5 -68 -12 -90 -16 -22 -3 -47 -7 -55 -9 -8 -2 -31 -7 -50 -10
-19 -3 -57 -10 -85 -15 -27 -6 -63 -12 -80 -14 -16 -3 -41 -7 -55 -10 -13 -3
-63 -12 -110 -21 -47 -8 -95 -17 -106 -19 -12 -2 -37 -7 -55 -10 -42 -7 -49
-8 -289 -52 -107 -20 -205 -38 -218 -40 -12 -2 -49 -9 -82 -14 -33 -6 -72 -13
-87 -16 -16 -2 -39 -7 -53 -9 -57 -12 -162 -31 -215 -40 -16 -3 -93 -17 -170
-31 -77 -15 -151 -28 -165 -30 -26 -4 -88 -16 -105 -19 -5 -2 -28 -6 -50 -9
-22 -3 -51 -8 -65 -11 -46 -10 -75 -15 -105 -20 -40 -7 -144 -26 -175 -32
-295 -54 -499 -91 -545 -99 -16 -2 -41 -7 -55 -9 -14 -3 -36 -8 -50 -10 -14
-3 -41 -8 -60 -11 -19 -3 -42 -7 -50 -9 -8 -3 -33 -7 -55 -10 -22 -4 -47 -8
-55 -10 -8 -3 -33 -7 -55 -11 -22 -3 -85 -14 -140 -25 -55 -10 -118 -21 -140
-25 -22 -3 -59 -10 -83 -15 -23 -5 -59 -12 -80 -15 -20 -3 -82 -14 -137 -24
-55 -11 -111 -21 -125 -24 -14 -2 -63 -11 -110 -20 -47 -8 -101 -18 -120 -21
-19 -3 -46 -8 -60 -10 -14 -3 -36 -8 -50 -10 -14 -3 -41 -8 -60 -11 -19 -3
-66 -11 -105 -19 -38 -8 -86 -17 -105 -20 -43 -7 -136 -23 -170 -30 -45 -9
-64 -12 -223 -41 l-158 -28 5 -916 c3 -503 5 -939 5 -968 l1 -54 43 7 c23 4
51 9 62 12 11 2 29 5 40 7 11 2 34 6 50 9 17 4 46 9 65 12 19 3 73 13 120 21
47 9 94 18 105 20 11 1 47 8 80 14 33 5 74 12 90 15 17 3 40 8 53 10 20 5 117
23 217 40 17 3 64 12 105 20 41 8 93 17 115 20 22 4 72 12 110 20 39 7 86 16
105 19 19 3 44 8 55 10 11 2 36 6 55 10 19 3 46 8 60 11 14 3 50 9 80 15 30 6
66 12 80 15 14 3 39 7 57 9 18 3 40 7 50 10 10 2 36 7 58 11 22 3 123 21 225
40 102 19 203 37 225 40 22 4 56 10 75 15 19 5 58 12 85 16 28 3 52 8 55 9 3
2 24 6 46 9 22 4 51 9 64 11 14 3 39 8 55 10 76 14 142 26 165 30 14 3 40 8
59 11 18 3 43 8 55 10 11 2 46 8 76 14 30 5 69 12 85 15 28 5 145 27 330 60
109 20 121 22 190 34 33 6 71 13 85 16 14 3 41 8 60 11 19 3 80 14 135 25 55
10 118 21 140 24 22 4 56 10 75 15 19 5 55 12 80 15 25 3 52 8 60 10 8 2 31 7
50 10 40 6 135 23 165 29 41 8 191 35 220 40 17 2 66 11 110 20 44 9 98 18
120 22 22 3 58 9 80 14 22 5 92 18 155 29 63 12 126 23 140 25 14 3 52 10 85
15 33 6 71 13 85 16 14 3 41 8 60 11 19 3 42 7 50 9 8 2 29 6 45 9 81 13 106
18 185 32 109 21 120 23 150 29 14 3 43 7 65 11 22 3 47 7 55 9 8 2 31 7 50
10 19 3 42 8 50 10 8 2 35 7 60 10 25 4 74 13 110 20 36 7 85 16 110 20 25 3
64 11 88 16 23 5 59 12 80 15 20 3 69 12 107 19 39 8 88 17 110 21 22 3 85 14
140 25 55 10 118 21 140 25 22 3 42 7 45 9 3 2 5 244 3 537 -2 293 -4 727 -6
963 l-2 430 -25 1 c-14 0 -41 -3 -60 -7z"/>
</g>
</svg>
