<svg width="48" height="48" viewBox="23 23 58 58" xmlns="http://www.w3.org/2000/svg" xmlns:xlink="http://www.w3.org/1999/xlink">
<path d="M58.897 21.811c-1.877.73-4.25 1.196-6.877 1.196-2.53 0-4.824-.431-6.667-1.116C47.854 16.82 50.573 14 52.12 14c1.538 0 4.288 2.791 6.777 7.811zm.627 1.325c2.05 4.543 3.828 10.635 4.451 17.939.878 10.283-.268 19.22-3.438 26.811a3.034 3.034 0 01-2.8 1.865h-11.31a3.034 3.034 0 01-2.758-1.77c-3.489-7.61-4.681-16.58-3.577-26.906.777-7.261 2.59-13.325 4.636-17.86 2.093.768 4.599 1.215 7.292 1.215 2.785 0 5.37-.478 7.504-1.294zM52.044 40.6a5.225 5.225 0 100-10.45 5.225 5.225 0 000 10.45zM41.588 66.53l-6.714 5.142a.948.948 0 01-1.518-.646c-.67-5.925-.393-11.403.832-16.432.992-4.072 2.392-6.83 4.2-8.274-.39 7.557.677 14.294 3.2 20.21zm20.824 0c2.523-5.916 3.59-12.653 3.2-20.21 1.808 1.444 3.208 4.202 4.2 8.274 1.225 5.03 1.503 10.507.832 16.432a.948.948 0 01-1.518.646l-6.714-5.142zm-3.328 12.52c-.217 2.833-1.537 4.608-2.7 6.175-1.078 1.451-2.009 2.704-2.009 4.552a.396.396 0 01-.626.322c-1.748-1.25-3.207-3.36-3.716-5.37-.354-1.401-.4-2.975-.407-4.015-1.614.345-1.98 2.76-1.984 2.786a.398.398 0 01-.565.3c-.084-.041-2.078-1.054-2.194-5.097a6.705 6.705 0 01-.008-.405c0-3.928 3.196-7.124 7.125-7.124h.021c3.919.011 7.104 3.203 7.104 7.124 0 .198-.04.751-.04.751zM52 73.672c-1.834 0-3.325 1.425-3.325 3.177 0 .06 0 .12.004.194.023.74.179 1.243.35 1.579.322-.62.897-1.189 1.83-1.189.307 0 .554.222.554.497 0 .708.017 1.524.213 2.261.175.654.593 1.35 1.122 1.906.235-.723.694-1.308 1.142-1.88.642-.817 1.305-1.663 1.42-3.104.008-.085.015-.171.015-.264 0-1.752-1.492-3.177-3.325-3.177z" fill="currentColor" fill-rule="nonzero" mask="url(#b)" transform="rotate(45 52 52.087)"/></svg>