<svg aria-labelledby="title-d63b00d8-364f-47aa-8ee8-3847b26119cf" width="175" height="23" viewBox="0 0 175 23"
    fill="none" xmlns="http://www.w3.org/2000/svg" role="img">
    <title id="title-d63b00d8-364f-47aa-8ee8-3847b26119cf">Der Spiegel</title>
    <path
        d="M6.31 19.167V3.833h4.925v15.334H6.31zm9.388 1.38V2.453c0-1.38-1.23-2.453-2.462-2.453H0v3.833h1.847v15.334H0V23h13.39c1.231 0 2.308-1.073 2.308-2.453zM29.55 14.873v4.294h-5.233V12.88h6.926V9.047h-6.926V3.833h5.233v3.22h4.31V0H18.16v3.833h1.693v15.334h-1.693V23H33.86v-8.127H29.55zM42.478 9.047V3.833h5.08v5.214h-5.08zm9.696 10.12v-5.52c0-1.38-1.077-2.454-2.462-2.454 1.385 0 2.462-1.073 2.462-2.453V2.607c0-1.227-1.077-2.454-2.308-2.454H36.168v3.834h2V19.32h-2V23h8.157v-3.833h-1.693V12.88h5.079v6.287h-1.847V23h8.003v-3.833h-1.693zM84.956 9.047V3.833h5.233v5.214h-5.233zm9.696 1.38V2.453C94.652 1.073 93.575 0 92.19 0H78.646v3.833h1.847v15.334h-1.847V23h8.003v-3.833h-1.693V12.88h7.234c1.385 0 2.462-1.073 2.462-2.453zM102.501 19.167V3.833h1.847V0h-8.003v3.833h1.847v15.334h-1.847V23h8.003v-3.833h-1.847zM117.738 14.873v4.294h-5.233V12.88h6.926V9.047h-6.926V3.833h5.233v3.22h4.463V0h-15.852v3.833h1.693v15.334h-1.693V23h15.852v-8.127h-4.463zM130.358 9.047v3.833h3.54v6.287h-5.233V3.833h5.233v3.22h4.617v-4.6c0-1.38-1.077-2.453-2.462-2.453h-9.234c-.616 0-1.232.307-1.54.613-.461.46-.923 1.074-.923 1.84v18.094c0 .766.308 1.38.923 1.84.462.46 1.078.613 1.693.613h11.543V9.047h-8.157zM152.059 14.873v4.294h-5.233V12.88h6.926V9.047h-6.926V3.833h5.233v3.22h4.463V0H140.67v3.833h1.693v15.334h-1.693V23h15.852v-8.127h-4.463zM170.066 14.873v4.294h-5.078V3.833h1.846V0h-8.157v3.833h1.847v15.334h-1.847V23h15.853v-8.127h-4.464zM76.645 20.685V9.107h-9.542V3.86h5.08v3.242h4.616V2.47C76.8.988 75.414 0 74.03 0h-9.08c-1.386 0-2.463 1.08-2.463 2.47v10.496h9.542v6.33H66.95v-4.323h-4.463v5.557c0 1.39 1.077 2.47 2.462 2.47h9.08c1.417 0 2.617-.926 2.617-2.315z"
        fill="currentColor"></path>
</svg>